<svg width="180" height="38" viewBox="0 0 180 38" fill="none" xmlns="http://www.w3.org/2000/svg">
<mask id="mask0_2020_1121" style="mask-type:luminance" maskUnits="userSpaceOnUse" x="4" y="9" width="30" height="20">
<path fill-rule="evenodd" clip-rule="evenodd" d="M33.2381 11.0247C33.2349 10.9108 33.2017 10.8031 33.1716 10.6938C33.1479 10.602 33.1368 10.5086 33.0972 10.4247C33.0608 10.3423 32.999 10.2758 32.9452 10.1998C32.8787 10.1033 32.8185 10.0067 32.733 9.9275C32.7188 9.91325 32.7125 9.89425 32.6966 9.88158C32.6396 9.8325 32.57 9.81508 32.5082 9.7755C32.4132 9.71375 32.3198 9.65042 32.2121 9.60925C32.106 9.57125 32.0015 9.56175 31.8923 9.54592C31.8163 9.53483 31.7482 9.5 31.6674 9.5H23.7508C22.8752 9.5 22.1675 10.2093 22.1675 11.0833C22.1675 11.9573 22.8752 12.6667 23.7508 12.6667H28.2253L21.835 20.121L15.0646 16.0598C14.3949 15.6544 13.5335 15.8033 13.0332 16.4033L5.11653 25.9033C4.55762 26.5747 4.64787 27.5737 5.3192 28.1327C5.61687 28.3797 5.9747 28.5 6.33253 28.5C6.78695 28.5 7.23662 28.3068 7.55012 27.93L14.5991 19.4718L21.352 23.5252C22.0154 23.9226 22.8673 23.7833 23.3692 23.1974L30.0841 15.3631V19C30.0841 19.874 30.7919 20.5833 31.6674 20.5833C32.543 20.5833 33.2508 19.874 33.2508 19V11.0833C33.2508 11.0627 33.2397 11.0453 33.2381 11.0247Z" fill="white"/>
</mask>
<g mask="url(#mask0_2020_1121)">
<rect width="38" height="38" fill="#8D57FA"/>
</g>
<path d="M54.62 12.4V15.1H51.02V25H48.32V15.1H44.72V12.4H54.62ZM59.042 25.234C58.214 25.234 57.458 25.021 56.774 24.595C56.096 24.169 55.553 23.596 55.145 22.876C54.743 22.156 54.542 21.361 54.542 20.491C54.542 19.837 54.659 19.225 54.893 18.655C55.127 18.079 55.448 17.575 55.856 17.143C56.27 16.705 56.75 16.363 57.296 16.117C57.842 15.871 58.424 15.748 59.042 15.748C59.762 15.748 60.419 15.907 61.013 16.225C61.613 16.537 62.117 16.963 62.525 17.503C62.939 18.037 63.233 18.64 63.407 19.312C63.581 19.984 63.599 20.677 63.461 21.391H57.458C57.542 21.601 57.653 21.793 57.791 21.967C57.935 22.135 58.109 22.27 58.313 22.372C58.523 22.474 58.766 22.528 59.042 22.534C59.306 22.54 59.549 22.483 59.771 22.363C59.999 22.243 60.197 22.081 60.365 21.877L63.119 22.516C62.753 23.314 62.207 23.968 61.481 24.478C60.755 24.982 59.942 25.234 59.042 25.234ZM57.359 19.411H60.734C60.65 19.153 60.524 18.925 60.356 18.727C60.188 18.529 59.99 18.373 59.762 18.259C59.54 18.145 59.3 18.088 59.042 18.088C58.79 18.088 58.55 18.145 58.322 18.259C58.1 18.373 57.905 18.529 57.737 18.727C57.575 18.925 57.449 19.153 57.359 19.411ZM70.1084 22.048L72.5384 23.362C72.1244 23.926 71.6054 24.379 70.9814 24.721C70.3574 25.063 69.6764 25.234 68.9384 25.234C68.1104 25.234 67.3544 25.021 66.6704 24.595C65.9924 24.169 65.4494 23.599 65.0414 22.885C64.6394 22.165 64.4384 21.37 64.4384 20.5C64.4384 19.84 64.5554 19.225 64.7894 18.655C65.0234 18.079 65.3444 17.575 65.7524 17.143C66.1664 16.705 66.6464 16.363 67.1924 16.117C67.7384 15.871 68.3204 15.748 68.9384 15.748C69.6764 15.748 70.3574 15.919 70.9814 16.261C71.6054 16.603 72.1244 17.062 72.5384 17.638L70.1084 18.952C69.9464 18.79 69.7634 18.667 69.5594 18.583C69.3614 18.493 69.1544 18.448 68.9384 18.448C68.5964 18.448 68.2904 18.544 68.0204 18.736C67.7504 18.928 67.5344 19.18 67.3724 19.492C67.2164 19.804 67.1384 20.14 67.1384 20.5C67.1384 20.854 67.2164 21.187 67.3724 21.499C67.5344 21.805 67.7504 22.054 68.0204 22.246C68.2904 22.438 68.5964 22.534 68.9384 22.534C69.1544 22.534 69.3614 22.492 69.5594 22.408C69.7634 22.318 69.9464 22.198 70.1084 22.048ZM82.2361 19.249V25H79.5361V20.005C79.5361 19.723 79.4671 19.468 79.3291 19.24C79.1911 19.006 79.0081 18.823 78.7801 18.691C78.5521 18.553 78.2971 18.484 78.0151 18.484C77.7331 18.484 77.4751 18.553 77.2411 18.691C77.0131 18.823 76.8301 19.006 76.6921 19.24C76.5601 19.468 76.4941 19.723 76.4941 20.005V25H73.7941L73.7851 11.5H76.4851L76.4941 16.567C76.7941 16.309 77.1361 16.108 77.5201 15.964C77.9041 15.82 78.3091 15.748 78.7351 15.748C79.3831 15.748 79.9711 15.907 80.4991 16.225C81.0271 16.537 81.4471 16.957 81.7591 17.485C82.0771 18.013 82.2361 18.601 82.2361 19.249ZM97.8973 12.4V15.1H94.2973V25H91.5973V15.1H87.9973V12.4H97.8973ZM98.7199 25L98.7109 16H101.411L101.42 16.567C101.72 16.309 102.062 16.108 102.446 15.964C102.83 15.82 103.235 15.748 103.661 15.748C103.985 15.748 104.315 15.796 104.651 15.892L103.589 18.628C103.379 18.532 103.163 18.484 102.941 18.484C102.659 18.484 102.401 18.553 102.167 18.691C101.939 18.823 101.756 19.006 101.618 19.24C101.486 19.468 101.42 19.723 101.42 20.005V25H98.7199ZM109.157 25.234C108.329 25.234 107.573 25.021 106.889 24.595C106.211 24.169 105.668 23.596 105.26 22.876C104.858 22.156 104.657 21.361 104.657 20.491C104.657 19.837 104.774 19.225 105.008 18.655C105.242 18.079 105.563 17.575 105.971 17.143C106.385 16.705 106.865 16.363 107.411 16.117C107.957 15.871 108.539 15.748 109.157 15.748C109.877 15.748 110.534 15.907 111.128 16.225C111.728 16.537 112.232 16.963 112.64 17.503C113.054 18.037 113.348 18.64 113.522 19.312C113.696 19.984 113.714 20.677 113.576 21.391H107.573C107.657 21.601 107.768 21.793 107.906 21.967C108.05 22.135 108.224 22.27 108.428 22.372C108.638 22.474 108.881 22.528 109.157 22.534C109.421 22.54 109.664 22.483 109.886 22.363C110.114 22.243 110.312 22.081 110.48 21.877L113.234 22.516C112.868 23.314 112.322 23.968 111.596 24.478C110.87 24.982 110.057 25.234 109.157 25.234ZM107.474 19.411H110.849C110.765 19.153 110.639 18.925 110.471 18.727C110.303 18.529 110.105 18.373 109.877 18.259C109.655 18.145 109.415 18.088 109.157 18.088C108.905 18.088 108.665 18.145 108.437 18.259C108.215 18.373 108.02 18.529 107.852 18.727C107.69 18.925 107.564 19.153 107.474 19.411ZM123.457 19.249V25H120.757V20.005C120.757 19.723 120.688 19.468 120.55 19.24C120.412 19.006 120.229 18.823 120.001 18.691C119.773 18.553 119.518 18.484 119.236 18.484C118.954 18.484 118.696 18.553 118.462 18.691C118.234 18.823 118.051 19.006 117.913 19.24C117.781 19.468 117.715 19.723 117.715 20.005V25H115.015L115.006 16H117.706L117.715 16.567C118.015 16.309 118.357 16.108 118.741 15.964C119.125 15.82 119.53 15.748 119.956 15.748C120.604 15.748 121.192 15.907 121.72 16.225C122.248 16.537 122.668 16.957 122.98 17.485C123.298 18.013 123.457 18.601 123.457 19.249ZM131.558 11.5H134.258V25H131.558V24.172C131.282 24.484 130.952 24.739 130.568 24.937C130.19 25.135 129.758 25.234 129.272 25.234C128.618 25.234 128.006 25.111 127.436 24.865C126.866 24.619 126.362 24.28 125.924 23.848C125.492 23.41 125.153 22.906 124.907 22.336C124.661 21.766 124.538 21.154 124.538 20.5C124.538 19.846 124.661 19.234 124.907 18.664C125.153 18.094 125.492 17.593 125.924 17.161C126.362 16.723 126.866 16.381 127.436 16.135C128.006 15.889 128.618 15.766 129.272 15.766C129.758 15.766 130.19 15.865 130.568 16.063C130.952 16.255 131.282 16.51 131.558 16.828V11.5ZM129.308 22.642C129.68 22.642 130.019 22.546 130.325 22.354C130.631 22.162 130.874 21.904 131.054 21.58C131.234 21.256 131.324 20.896 131.324 20.5C131.324 20.104 131.234 19.744 131.054 19.42C130.874 19.096 130.631 18.838 130.325 18.646C130.019 18.454 129.68 18.358 129.308 18.358C128.936 18.358 128.597 18.454 128.291 18.646C127.991 18.838 127.751 19.096 127.571 19.42C127.397 19.744 127.31 20.104 127.31 20.5C127.31 20.896 127.4 21.256 127.58 21.58C127.76 21.904 128 22.162 128.3 22.354C128.606 22.546 128.942 22.642 129.308 22.642ZM136.416 16H139.116V25H136.416V16ZM137.784 15.064C137.394 15.064 137.067 14.935 136.803 14.677C136.539 14.419 136.407 14.098 136.407 13.714C136.407 13.336 136.539 13.018 136.803 12.76C137.067 12.496 137.391 12.364 137.775 12.364C138.153 12.364 138.471 12.496 138.729 12.76C138.993 13.018 139.125 13.336 139.125 13.714C139.125 14.098 138.996 14.419 138.738 14.677C138.486 14.935 138.168 15.064 137.784 15.064ZM149.613 19.249V25H146.913V20.005C146.913 19.723 146.844 19.468 146.706 19.24C146.568 19.006 146.385 18.823 146.157 18.691C145.929 18.553 145.674 18.484 145.392 18.484C145.11 18.484 144.852 18.553 144.618 18.691C144.39 18.823 144.207 19.006 144.069 19.24C143.937 19.468 143.871 19.723 143.871 20.005V25H141.171L141.162 16H143.862L143.871 16.567C144.171 16.309 144.513 16.108 144.897 15.964C145.281 15.82 145.686 15.748 146.112 15.748C146.76 15.748 147.348 15.907 147.876 16.225C148.404 16.537 148.824 16.957 149.136 17.485C149.454 18.013 149.613 18.601 149.613 19.249Z" fill="white"/>
<path d="M150.69 17.098L151.248 12.4H153.948L152.49 17.098H150.69Z" fill="#8D57FA"/>
<rect x="179" y="2" width="1" height="34" fill="white" fill-opacity="0.09"/>
</svg>
